<mxfile host="app.diagrams.net" modified="2021-10-03T09:31:51.952Z" agent="5.0 (Windows NT 10.0; Win64; x64) AppleWebKit/537.36 (KHTML, like Gecko) Chrome/94.0.4606.61 Safari/537.36" etag="z4mWbhkAmDFd9RkF2yza" version="15.4.1" type="github">
  <diagram id="6H4R47eBY3q_TcvJeOBk" name="Page-1">
    <mxGraphModel dx="1865" dy="547" grid="1" gridSize="10" guides="1" tooltips="1" connect="1" arrows="1" fold="1" page="1" pageScale="1" pageWidth="827" pageHeight="1169" math="0" shadow="0">
      <root>
        <mxCell id="0" />
        <mxCell id="1" parent="0" />
        <mxCell id="lGjKi2mFenc1zMOufSLO-3" value="o" style="ellipse;whiteSpace=wrap;html=1;aspect=fixed;" vertex="1" parent="1">
          <mxGeometry x="166.83" y="240" width="20" height="20" as="geometry" />
        </mxCell>
        <mxCell id="lGjKi2mFenc1zMOufSLO-13" value="account" style="ellipse;whiteSpace=wrap;html=1;" vertex="1" parent="1">
          <mxGeometry x="-30" y="300" width="60" height="30" as="geometry" />
        </mxCell>
        <mxCell id="lGjKi2mFenc1zMOufSLO-14" value="" style="endArrow=none;html=1;rounded=0;exitX=0;exitY=0;exitDx=0;exitDy=0;" edge="1" parent="1" source="lGjKi2mFenc1zMOufSLO-13" target="lGjKi2mFenc1zMOufSLO-22">
          <mxGeometry width="50" height="50" relative="1" as="geometry">
            <mxPoint x="20" y="230" as="sourcePoint" />
            <mxPoint x="70" y="180" as="targetPoint" />
          </mxGeometry>
        </mxCell>
        <mxCell id="lGjKi2mFenc1zMOufSLO-15" value="" style="endArrow=none;html=1;rounded=0;exitX=0;exitY=0.5;exitDx=0;exitDy=0;" edge="1" parent="1" source="lGjKi2mFenc1zMOufSLO-13" target="lGjKi2mFenc1zMOufSLO-23">
          <mxGeometry width="50" height="50" relative="1" as="geometry">
            <mxPoint x="330" y="200" as="sourcePoint" />
            <mxPoint x="-210" y="310" as="targetPoint" />
          </mxGeometry>
        </mxCell>
        <mxCell id="lGjKi2mFenc1zMOufSLO-16" value="" style="endArrow=none;html=1;rounded=0;entryX=0;entryY=1;entryDx=0;entryDy=0;exitX=1;exitY=0.5;exitDx=0;exitDy=0;" edge="1" parent="1" source="lGjKi2mFenc1zMOufSLO-24" target="lGjKi2mFenc1zMOufSLO-13">
          <mxGeometry width="50" height="50" relative="1" as="geometry">
            <mxPoint x="-120" y="390" as="sourcePoint" />
            <mxPoint x="-70" y="340" as="targetPoint" />
          </mxGeometry>
        </mxCell>
        <mxCell id="lGjKi2mFenc1zMOufSLO-17" value="" style="endArrow=none;html=1;rounded=0;exitX=0.339;exitY=0.072;exitDx=0;exitDy=0;exitPerimeter=0;" edge="1" parent="1" source="lGjKi2mFenc1zMOufSLO-13" target="lGjKi2mFenc1zMOufSLO-21">
          <mxGeometry width="50" height="50" relative="1" as="geometry">
            <mxPoint x="20" y="220" as="sourcePoint" />
            <mxPoint x="70" y="170" as="targetPoint" />
          </mxGeometry>
        </mxCell>
        <mxCell id="lGjKi2mFenc1zMOufSLO-18" value="" style="endArrow=none;html=1;rounded=0;entryX=0;entryY=1;entryDx=0;entryDy=0;exitX=1;exitY=0.5;exitDx=0;exitDy=0;" edge="1" parent="1" source="lGjKi2mFenc1zMOufSLO-25" target="lGjKi2mFenc1zMOufSLO-13">
          <mxGeometry width="50" height="50" relative="1" as="geometry">
            <mxPoint x="-100" y="370" as="sourcePoint" />
            <mxPoint x="-80" y="370" as="targetPoint" />
          </mxGeometry>
        </mxCell>
        <mxCell id="lGjKi2mFenc1zMOufSLO-20" value="&lt;font style=&quot;font-size: 8px&quot;&gt;home_address&lt;/font&gt;" style="ellipse;whiteSpace=wrap;html=1;" vertex="1" parent="1">
          <mxGeometry x="-90" y="60" width="90" height="30" as="geometry" />
        </mxCell>
        <mxCell id="lGjKi2mFenc1zMOufSLO-21" value="&lt;font style=&quot;font-size: 11px&quot;&gt;billing_address&lt;/font&gt;" style="ellipse;whiteSpace=wrap;html=1;fontSize=8;" vertex="1" parent="1">
          <mxGeometry x="-120" y="105" width="90" height="35" as="geometry" />
        </mxCell>
        <mxCell id="lGjKi2mFenc1zMOufSLO-22" value="mobile_phone_numbers" style="ellipse;whiteSpace=wrap;html=1;fontSize=11;" vertex="1" parent="1">
          <mxGeometry x="-210" y="140" width="140" height="40" as="geometry" />
        </mxCell>
        <mxCell id="lGjKi2mFenc1zMOufSLO-23" value="family_members" style="ellipse;whiteSpace=wrap;html=1;fontSize=11;" vertex="1" parent="1">
          <mxGeometry x="-210" y="210" width="100" height="30" as="geometry" />
        </mxCell>
        <mxCell id="lGjKi2mFenc1zMOufSLO-24" value="personal_website" style="ellipse;whiteSpace=wrap;html=1;fontSize=11;" vertex="1" parent="1">
          <mxGeometry x="-220" y="260" width="110" height="30" as="geometry" />
        </mxCell>
        <mxCell id="lGjKi2mFenc1zMOufSLO-25" value="gender" style="ellipse;whiteSpace=wrap;html=1;fontSize=11;" vertex="1" parent="1">
          <mxGeometry x="-150" y="290" width="60" height="30" as="geometry" />
        </mxCell>
        <mxCell id="lGjKi2mFenc1zMOufSLO-26" value="" style="endArrow=none;html=1;rounded=0;fontSize=11;entryX=0;entryY=1;entryDx=0;entryDy=0;exitX=1;exitY=0.5;exitDx=0;exitDy=0;" edge="1" parent="1" source="lGjKi2mFenc1zMOufSLO-27" target="lGjKi2mFenc1zMOufSLO-13">
          <mxGeometry width="50" height="50" relative="1" as="geometry">
            <mxPoint x="-100" y="380" as="sourcePoint" />
            <mxPoint x="-50" y="330" as="targetPoint" />
          </mxGeometry>
        </mxCell>
        <mxCell id="lGjKi2mFenc1zMOufSLO-27" value="birthday" style="ellipse;whiteSpace=wrap;html=1;fontSize=11;" vertex="1" parent="1">
          <mxGeometry x="-175" y="330" width="70" height="30" as="geometry" />
        </mxCell>
        <mxCell id="lGjKi2mFenc1zMOufSLO-28" value="" style="endArrow=none;html=1;rounded=0;fontSize=11;entryX=0.5;entryY=1;entryDx=0;entryDy=0;exitX=0.5;exitY=0;exitDx=0;exitDy=0;" edge="1" parent="1" target="lGjKi2mFenc1zMOufSLO-13">
          <mxGeometry width="50" height="50" relative="1" as="geometry">
            <mxPoint y="330" as="sourcePoint" />
            <mxPoint x="10" y="220" as="targetPoint" />
          </mxGeometry>
        </mxCell>
        <mxCell id="lGjKi2mFenc1zMOufSLO-97" style="edgeStyle=none;rounded=0;orthogonalLoop=1;jettySize=auto;html=1;exitX=0.5;exitY=1;exitDx=0;exitDy=0;fontSize=11;startArrow=none;startFill=0;endArrow=none;endFill=0;strokeWidth=3;" edge="1" parent="1" source="lGjKi2mFenc1zMOufSLO-41" target="lGjKi2mFenc1zMOufSLO-98">
          <mxGeometry relative="1" as="geometry">
            <mxPoint x="132.5999999999999" y="420" as="targetPoint" />
          </mxGeometry>
        </mxCell>
        <mxCell id="lGjKi2mFenc1zMOufSLO-41" value="contact_list" style="shape=rhombus;double=1;perimeter=rhombusPerimeter;whiteSpace=wrap;html=1;align=center;rounded=0;shadow=0;sketch=0;fontSize=11;" vertex="1" parent="1">
          <mxGeometry x="73.75" y="350" width="117.5" height="40" as="geometry" />
        </mxCell>
        <mxCell id="lGjKi2mFenc1zMOufSLO-57" value="" style="edgeStyle=none;rounded=0;orthogonalLoop=1;jettySize=auto;html=1;fontSize=11;endArrow=none;endFill=0;entryX=0.5;entryY=0;entryDx=0;entryDy=0;exitX=0.5;exitY=1;exitDx=0;exitDy=0;" edge="1" parent="1" source="lGjKi2mFenc1zMOufSLO-42" target="lGjKi2mFenc1zMOufSLO-43">
          <mxGeometry relative="1" as="geometry">
            <mxPoint x="178" y="100" as="sourcePoint" />
            <mxPoint x="178" y="140" as="targetPoint" />
          </mxGeometry>
        </mxCell>
        <mxCell id="lGjKi2mFenc1zMOufSLO-42" value="name" style="ellipse;whiteSpace=wrap;html=1;align=center;rounded=0;shadow=0;sketch=0;fontSize=11;" vertex="1" parent="1">
          <mxGeometry x="136.83" y="75" width="80" height="30" as="geometry" />
        </mxCell>
        <mxCell id="lGjKi2mFenc1zMOufSLO-117" style="edgeStyle=none;rounded=0;orthogonalLoop=1;jettySize=auto;html=1;exitX=0.5;exitY=0;exitDx=0;exitDy=0;fontSize=11;startArrow=none;startFill=0;endArrow=none;endFill=0;strokeWidth=1;" edge="1" parent="1" source="lGjKi2mFenc1zMOufSLO-43">
          <mxGeometry relative="1" as="geometry">
            <mxPoint x="178" y="140" as="targetPoint" />
          </mxGeometry>
        </mxCell>
        <mxCell id="lGjKi2mFenc1zMOufSLO-43" value="people" style="whiteSpace=wrap;html=1;align=center;rounded=0;shadow=0;sketch=0;fontSize=11;" vertex="1" parent="1">
          <mxGeometry x="130" y="145" width="95" height="30" as="geometry" />
        </mxCell>
        <mxCell id="lGjKi2mFenc1zMOufSLO-44" value="" style="endArrow=none;html=1;rounded=0;fontSize=11;exitX=1;exitY=0.5;exitDx=0;exitDy=0;entryX=0.5;entryY=1;entryDx=0;entryDy=0;" edge="1" parent="1" source="lGjKi2mFenc1zMOufSLO-43" target="lGjKi2mFenc1zMOufSLO-48">
          <mxGeometry relative="1" as="geometry">
            <mxPoint x="-70" y="480" as="sourcePoint" />
            <mxPoint x="90" y="480" as="targetPoint" />
          </mxGeometry>
        </mxCell>
        <mxCell id="lGjKi2mFenc1zMOufSLO-48" value="unique_people_ID" style="ellipse;whiteSpace=wrap;html=1;align=center;fontStyle=4;rounded=0;shadow=0;sketch=0;fontSize=11;" vertex="1" parent="1">
          <mxGeometry x="260" y="55" width="110" height="40" as="geometry" />
        </mxCell>
        <mxCell id="lGjKi2mFenc1zMOufSLO-49" value="email_address" style="ellipse;whiteSpace=wrap;html=1;align=center;rounded=0;shadow=0;sketch=0;fontSize=11;" vertex="1" parent="1">
          <mxGeometry x="22.5" y="115" width="90" height="30" as="geometry" />
        </mxCell>
        <mxCell id="lGjKi2mFenc1zMOufSLO-50" value="" style="endArrow=none;html=1;rounded=0;fontSize=11;entryX=0;entryY=0.25;entryDx=0;entryDy=0;exitX=0.635;exitY=0.978;exitDx=0;exitDy=0;exitPerimeter=0;" edge="1" parent="1" source="lGjKi2mFenc1zMOufSLO-49" target="lGjKi2mFenc1zMOufSLO-43">
          <mxGeometry relative="1" as="geometry">
            <mxPoint x="-90" y="350" as="sourcePoint" />
            <mxPoint x="70" y="350" as="targetPoint" />
          </mxGeometry>
        </mxCell>
        <mxCell id="lGjKi2mFenc1zMOufSLO-51" value="" style="endArrow=none;html=1;rounded=0;fontSize=11;exitX=0.5;exitY=1;exitDx=0;exitDy=0;entryX=0.5;entryY=0;entryDx=0;entryDy=0;" edge="1" parent="1" source="lGjKi2mFenc1zMOufSLO-43" target="lGjKi2mFenc1zMOufSLO-3">
          <mxGeometry relative="1" as="geometry">
            <mxPoint x="-90" y="430" as="sourcePoint" />
            <mxPoint x="160" y="270" as="targetPoint" />
          </mxGeometry>
        </mxCell>
        <mxCell id="lGjKi2mFenc1zMOufSLO-77" style="edgeStyle=none;rounded=0;orthogonalLoop=1;jettySize=auto;html=1;exitX=0;exitY=0.5;exitDx=0;exitDy=0;entryX=1;entryY=0.5;entryDx=0;entryDy=0;fontSize=11;endArrow=none;endFill=0;" edge="1" parent="1" source="lGjKi2mFenc1zMOufSLO-54" target="lGjKi2mFenc1zMOufSLO-13">
          <mxGeometry relative="1" as="geometry" />
        </mxCell>
        <mxCell id="lGjKi2mFenc1zMOufSLO-81" style="edgeStyle=none;rounded=0;orthogonalLoop=1;jettySize=auto;html=1;exitX=0.5;exitY=1;exitDx=0;exitDy=0;entryX=0.5;entryY=0;entryDx=0;entryDy=0;fontSize=11;startArrow=classicThin;startFill=1;endArrow=none;endFill=0;" edge="1" parent="1" source="lGjKi2mFenc1zMOufSLO-54" target="lGjKi2mFenc1zMOufSLO-41">
          <mxGeometry relative="1" as="geometry" />
        </mxCell>
        <mxCell id="lGjKi2mFenc1zMOufSLO-88" style="edgeStyle=none;rounded=0;orthogonalLoop=1;jettySize=auto;html=1;exitX=0;exitY=0;exitDx=0;exitDy=0;fontSize=11;startArrow=none;startFill=0;endArrow=none;endFill=0;" edge="1" parent="1" source="lGjKi2mFenc1zMOufSLO-54" target="lGjKi2mFenc1zMOufSLO-89">
          <mxGeometry relative="1" as="geometry">
            <mxPoint x="70" y="270" as="targetPoint" />
          </mxGeometry>
        </mxCell>
        <mxCell id="lGjKi2mFenc1zMOufSLO-90" style="edgeStyle=none;rounded=0;orthogonalLoop=1;jettySize=auto;html=1;exitX=0;exitY=1;exitDx=0;exitDy=0;fontSize=11;startArrow=none;startFill=0;endArrow=none;endFill=0;" edge="1" parent="1" source="lGjKi2mFenc1zMOufSLO-54" target="lGjKi2mFenc1zMOufSLO-91">
          <mxGeometry relative="1" as="geometry">
            <mxPoint y="390" as="targetPoint" />
          </mxGeometry>
        </mxCell>
        <mxCell id="lGjKi2mFenc1zMOufSLO-105" style="edgeStyle=none;rounded=0;orthogonalLoop=1;jettySize=auto;html=1;exitX=1;exitY=0.5;exitDx=0;exitDy=0;fontSize=11;startArrow=classicThin;startFill=1;endArrow=none;endFill=0;strokeWidth=1;" edge="1" parent="1" source="lGjKi2mFenc1zMOufSLO-54" target="lGjKi2mFenc1zMOufSLO-106">
          <mxGeometry relative="1" as="geometry">
            <mxPoint x="230" y="314.79999999999995" as="targetPoint" />
          </mxGeometry>
        </mxCell>
        <mxCell id="lGjKi2mFenc1zMOufSLO-54" value="users" style="whiteSpace=wrap;html=1;align=center;rounded=0;shadow=0;sketch=0;fontSize=11;" vertex="1" parent="1">
          <mxGeometry x="87.5" y="300" width="90" height="30" as="geometry" />
        </mxCell>
        <mxCell id="lGjKi2mFenc1zMOufSLO-55" value="" style="endArrow=none;html=1;rounded=0;fontSize=11;exitX=0.5;exitY=1;exitDx=0;exitDy=0;" edge="1" parent="1" source="lGjKi2mFenc1zMOufSLO-56" target="lGjKi2mFenc1zMOufSLO-42">
          <mxGeometry relative="1" as="geometry">
            <mxPoint x="-210" y="360" as="sourcePoint" />
            <mxPoint x="70" y="270" as="targetPoint" />
          </mxGeometry>
        </mxCell>
        <mxCell id="lGjKi2mFenc1zMOufSLO-56" value="given_name" style="ellipse;whiteSpace=wrap;html=1;align=center;rounded=0;shadow=0;sketch=0;fontSize=11;" vertex="1" parent="1">
          <mxGeometry x="200" y="30" width="75" height="30" as="geometry" />
        </mxCell>
        <mxCell id="lGjKi2mFenc1zMOufSLO-58" value="" style="endArrow=none;html=1;rounded=0;fontSize=11;entryX=0.387;entryY=0.025;entryDx=0;entryDy=0;exitX=0.597;exitY=0.997;exitDx=0;exitDy=0;exitPerimeter=0;entryPerimeter=0;" edge="1" parent="1" source="lGjKi2mFenc1zMOufSLO-60" target="lGjKi2mFenc1zMOufSLO-42">
          <mxGeometry relative="1" as="geometry">
            <mxPoint x="-110" y="380" as="sourcePoint" />
            <mxPoint x="70" y="270" as="targetPoint" />
          </mxGeometry>
        </mxCell>
        <mxCell id="lGjKi2mFenc1zMOufSLO-60" value="family_name" style="ellipse;whiteSpace=wrap;html=1;align=center;rounded=0;shadow=0;sketch=0;fontSize=11;" vertex="1" parent="1">
          <mxGeometry x="73.75" y="30" width="80" height="30" as="geometry" />
        </mxCell>
        <mxCell id="lGjKi2mFenc1zMOufSLO-73" value="" style="verticalLabelPosition=bottom;verticalAlign=top;html=1;shape=mxgraph.basic.arc;startAngle=0.3;endAngle=0.03302405011007771;rounded=0;shadow=0;sketch=0;fontSize=11;rotation=-30;" vertex="1" parent="1">
          <mxGeometry x="153.6" y="268" width="18.9" height="14" as="geometry" />
        </mxCell>
        <mxCell id="lGjKi2mFenc1zMOufSLO-76" value="" style="endArrow=none;html=1;rounded=0;fontSize=11;entryX=0.5;entryY=1;entryDx=0;entryDy=0;startArrow=none;exitX=0.604;exitY=-0.047;exitDx=0;exitDy=0;exitPerimeter=0;" edge="1" parent="1" source="lGjKi2mFenc1zMOufSLO-54" target="lGjKi2mFenc1zMOufSLO-3">
          <mxGeometry width="50" height="50" relative="1" as="geometry">
            <mxPoint x="151.18999999999983" y="308.5899999999999" as="sourcePoint" />
            <mxPoint x="176.82999999999993" y="260" as="targetPoint" />
          </mxGeometry>
        </mxCell>
        <mxCell id="lGjKi2mFenc1zMOufSLO-78" value="" style="endArrow=none;html=1;rounded=0;fontSize=11;entryX=0.5;entryY=0;entryDx=0;entryDy=0;exitX=0.763;exitY=0.917;exitDx=0;exitDy=0;exitPerimeter=0;" edge="1" parent="1" source="lGjKi2mFenc1zMOufSLO-20" target="lGjKi2mFenc1zMOufSLO-13">
          <mxGeometry relative="1" as="geometry">
            <mxPoint x="-100" y="250" as="sourcePoint" />
            <mxPoint x="60" y="250" as="targetPoint" />
          </mxGeometry>
        </mxCell>
        <mxCell id="lGjKi2mFenc1zMOufSLO-89" value="password" style="ellipse;whiteSpace=wrap;html=1;align=center;rounded=0;shadow=0;sketch=0;fontSize=11;" vertex="1" parent="1">
          <mxGeometry x="7.5" y="240" width="80" height="30" as="geometry" />
        </mxCell>
        <mxCell id="lGjKi2mFenc1zMOufSLO-93" style="edgeStyle=none;rounded=0;orthogonalLoop=1;jettySize=auto;html=1;exitX=0;exitY=0;exitDx=0;exitDy=0;fontSize=11;startArrow=none;startFill=0;endArrow=none;endFill=0;" edge="1" parent="1" source="lGjKi2mFenc1zMOufSLO-91" target="lGjKi2mFenc1zMOufSLO-94">
          <mxGeometry relative="1" as="geometry">
            <mxPoint x="-50" y="370" as="targetPoint" />
          </mxGeometry>
        </mxCell>
        <mxCell id="lGjKi2mFenc1zMOufSLO-95" style="edgeStyle=none;rounded=0;orthogonalLoop=1;jettySize=auto;html=1;exitX=0;exitY=1;exitDx=0;exitDy=0;fontSize=11;startArrow=none;startFill=0;endArrow=none;endFill=0;" edge="1" parent="1" source="lGjKi2mFenc1zMOufSLO-91" target="lGjKi2mFenc1zMOufSLO-96">
          <mxGeometry relative="1" as="geometry">
            <mxPoint x="-80" y="440" as="targetPoint" />
          </mxGeometry>
        </mxCell>
        <mxCell id="lGjKi2mFenc1zMOufSLO-91" value="my_events" style="ellipse;whiteSpace=wrap;html=1;align=center;rounded=0;shadow=0;sketch=0;fontSize=11;" vertex="1" parent="1">
          <mxGeometry x="-35" y="390" width="70" height="30" as="geometry" />
        </mxCell>
        <mxCell id="lGjKi2mFenc1zMOufSLO-94" value="event_URL" style="ellipse;whiteSpace=wrap;html=1;align=center;rounded=0;shadow=0;sketch=0;fontSize=11;" vertex="1" parent="1">
          <mxGeometry x="-160" y="365" width="80" height="25" as="geometry" />
        </mxCell>
        <mxCell id="lGjKi2mFenc1zMOufSLO-96" value="event_title" style="ellipse;whiteSpace=wrap;html=1;align=center;rounded=0;shadow=0;sketch=0;fontSize=11;" vertex="1" parent="1">
          <mxGeometry x="-160" y="410" width="80" height="30" as="geometry" />
        </mxCell>
        <mxCell id="lGjKi2mFenc1zMOufSLO-99" style="edgeStyle=none;rounded=0;orthogonalLoop=1;jettySize=auto;html=1;exitX=0.25;exitY=1;exitDx=0;exitDy=0;fontSize=11;startArrow=none;startFill=0;endArrow=none;endFill=0;" edge="1" parent="1" source="lGjKi2mFenc1zMOufSLO-98" target="lGjKi2mFenc1zMOufSLO-100">
          <mxGeometry relative="1" as="geometry">
            <mxPoint x="90" y="450" as="targetPoint" />
          </mxGeometry>
        </mxCell>
        <mxCell id="lGjKi2mFenc1zMOufSLO-101" style="edgeStyle=none;rounded=0;orthogonalLoop=1;jettySize=auto;html=1;exitX=0.75;exitY=1;exitDx=0;exitDy=0;fontSize=11;startArrow=none;startFill=0;endArrow=none;endFill=0;" edge="1" parent="1" source="lGjKi2mFenc1zMOufSLO-98" target="lGjKi2mFenc1zMOufSLO-102">
          <mxGeometry relative="1" as="geometry">
            <mxPoint x="180" y="450" as="targetPoint" />
          </mxGeometry>
        </mxCell>
        <mxCell id="lGjKi2mFenc1zMOufSLO-98" value="conntact" style="shape=ext;margin=3;double=1;whiteSpace=wrap;html=1;align=center;rounded=0;shadow=0;sketch=0;fontSize=11;" vertex="1" parent="1">
          <mxGeometry x="93.8" y="420" width="77.4" height="30" as="geometry" />
        </mxCell>
        <mxCell id="lGjKi2mFenc1zMOufSLO-100" value="name" style="ellipse;whiteSpace=wrap;html=1;align=center;rounded=0;shadow=0;sketch=0;fontSize=11;" vertex="1" parent="1">
          <mxGeometry x="22.5" y="460" width="70" height="30" as="geometry" />
        </mxCell>
        <mxCell id="lGjKi2mFenc1zMOufSLO-102" value="&lt;span style=&quot;border-bottom: 1px dotted&quot;&gt;email_address&lt;/span&gt;" style="ellipse;whiteSpace=wrap;html=1;align=center;rounded=0;shadow=0;sketch=0;fontSize=11;" vertex="1" parent="1">
          <mxGeometry x="140" y="460" width="90" height="40" as="geometry" />
        </mxCell>
        <mxCell id="lGjKi2mFenc1zMOufSLO-107" style="edgeStyle=none;rounded=0;orthogonalLoop=1;jettySize=auto;html=1;exitX=1;exitY=0.5;exitDx=0;exitDy=0;fontSize=11;startArrow=none;startFill=0;endArrow=none;endFill=0;strokeWidth=3;" edge="1" parent="1" source="lGjKi2mFenc1zMOufSLO-106" target="lGjKi2mFenc1zMOufSLO-108">
          <mxGeometry relative="1" as="geometry">
            <mxPoint x="340" y="314.79999999999995" as="targetPoint" />
          </mxGeometry>
        </mxCell>
        <mxCell id="lGjKi2mFenc1zMOufSLO-106" value="create" style="shape=rhombus;double=1;perimeter=rhombusPerimeter;whiteSpace=wrap;html=1;align=center;rounded=0;shadow=0;sketch=0;fontSize=11;" vertex="1" parent="1">
          <mxGeometry x="225" y="292.5" width="65" height="45" as="geometry" />
        </mxCell>
        <mxCell id="lGjKi2mFenc1zMOufSLO-109" style="edgeStyle=none;rounded=0;orthogonalLoop=1;jettySize=auto;html=1;exitX=0.367;exitY=-0.003;exitDx=0;exitDy=0;fontSize=11;startArrow=none;startFill=0;endArrow=none;endFill=0;strokeWidth=1;exitPerimeter=0;" edge="1" parent="1" source="lGjKi2mFenc1zMOufSLO-108" target="lGjKi2mFenc1zMOufSLO-110">
          <mxGeometry relative="1" as="geometry">
            <mxPoint x="300" y="270" as="targetPoint" />
          </mxGeometry>
        </mxCell>
        <mxCell id="lGjKi2mFenc1zMOufSLO-111" style="edgeStyle=none;rounded=0;orthogonalLoop=1;jettySize=auto;html=1;exitX=0.25;exitY=1;exitDx=0;exitDy=0;fontSize=11;startArrow=none;startFill=0;endArrow=none;endFill=0;strokeWidth=1;" edge="1" parent="1" source="lGjKi2mFenc1zMOufSLO-108" target="lGjKi2mFenc1zMOufSLO-112">
          <mxGeometry relative="1" as="geometry">
            <mxPoint x="280" y="370" as="targetPoint" />
          </mxGeometry>
        </mxCell>
        <mxCell id="lGjKi2mFenc1zMOufSLO-113" style="edgeStyle=none;rounded=0;orthogonalLoop=1;jettySize=auto;html=1;exitX=0.75;exitY=1;exitDx=0;exitDy=0;fontSize=11;startArrow=none;startFill=0;endArrow=none;endFill=0;strokeWidth=1;" edge="1" parent="1" source="lGjKi2mFenc1zMOufSLO-108" target="lGjKi2mFenc1zMOufSLO-114">
          <mxGeometry relative="1" as="geometry">
            <mxPoint x="339.79999999999995" y="360" as="targetPoint" />
          </mxGeometry>
        </mxCell>
        <mxCell id="lGjKi2mFenc1zMOufSLO-115" style="edgeStyle=none;rounded=0;orthogonalLoop=1;jettySize=auto;html=1;exitX=0.75;exitY=0;exitDx=0;exitDy=0;fontSize=11;startArrow=none;startFill=0;endArrow=none;endFill=0;strokeWidth=1;" edge="1" parent="1" source="lGjKi2mFenc1zMOufSLO-108" target="lGjKi2mFenc1zMOufSLO-116">
          <mxGeometry relative="1" as="geometry">
            <mxPoint x="350" y="280" as="targetPoint" />
          </mxGeometry>
        </mxCell>
        <mxCell id="lGjKi2mFenc1zMOufSLO-108" value="organisers" style="shape=ext;margin=3;double=1;whiteSpace=wrap;html=1;align=center;rounded=0;shadow=0;sketch=0;fontSize=11;" vertex="1" parent="1">
          <mxGeometry x="320" y="297.5" width="80" height="35" as="geometry" />
        </mxCell>
        <mxCell id="lGjKi2mFenc1zMOufSLO-110" value="&lt;div style=&quot;text-align: left&quot;&gt;descriptive_text&lt;/div&gt;" style="ellipse;whiteSpace=wrap;html=1;align=center;rounded=0;shadow=0;sketch=0;fontSize=11;" vertex="1" parent="1">
          <mxGeometry x="220" y="252" width="100" height="30" as="geometry" />
        </mxCell>
        <mxCell id="lGjKi2mFenc1zMOufSLO-112" value="name" style="ellipse;whiteSpace=wrap;html=1;align=center;rounded=0;shadow=0;sketch=0;fontSize=11;" vertex="1" parent="1">
          <mxGeometry x="250" y="360" width="60" height="30" as="geometry" />
        </mxCell>
        <mxCell id="lGjKi2mFenc1zMOufSLO-114" value="logo" style="ellipse;whiteSpace=wrap;html=1;align=center;rounded=0;shadow=0;sketch=0;fontSize=11;" vertex="1" parent="1">
          <mxGeometry x="378.00000000000006" y="350" width="70.2" height="30" as="geometry" />
        </mxCell>
        <mxCell id="lGjKi2mFenc1zMOufSLO-116" value="&lt;span style=&quot;border-bottom: 1px dotted&quot;&gt;organiser_ID&lt;/span&gt;" style="ellipse;whiteSpace=wrap;html=1;align=center;rounded=0;shadow=0;sketch=0;fontSize=11;" vertex="1" parent="1">
          <mxGeometry x="340" y="252" width="80" height="28" as="geometry" />
        </mxCell>
      </root>
    </mxGraphModel>
  </diagram>
</mxfile>
